<svg xmlns="http://www.w3.org/2000/svg" viewBox="0 0 240 120" role="img" aria-label="Larica 4º Distrito">
  <defs>
    <linearGradient id="corten" x1="0" y1="0" x2="1" y2="1">
      <stop offset="0%" stop-color="#8A3E22"/>
      <stop offset="38%" stop-color="#C56A38"/>
      <stop offset="72%" stop-color="#9A4A28"/>
      <stop offset="100%" stop-color="#6E3018"/>
    </linearGradient>
  </defs>
  <rect width="240" height="120" fill="url(#corten)"/>
  <rect x="5" y="5" width="230" height="110" fill="none" stroke="#1A120E" stroke-width="2" opacity=".4"/>
  <!-- LARICA — geometric condensed, dark on rust like the corner sign -->
  <g fill="#141210">
    <rect x="18" y="28" width="10" height="46"/>
    <rect x="18" y="28" width="26" height="9"/>
    <rect x="18" y="65" width="26" height="9"/>
    <polygon points="52,74 64,28 76,28 88,74 77,74 74,62 66,62 63,74"/>
    <polygon points="67,54 73,54 70,40"/>
    <rect x="96" y="28" width="10" height="46"/>
    <rect x="96" y="28" width="24" height="9"/>
    <rect x="110" y="28" width="10" height="46"/>
    <polygon points="130,74 142,28 154,28 166,74 155,74 152,62 144,62 141,74"/>
    <polygon points="145,54 151,54 148,40"/>
    <rect x="174" y="28" width="26" height="9"/>
    <rect x="174" y="28" width="10" height="46"/>
    <rect x="174" y="46" width="22" height="8"/>
    <rect x="202" y="28" width="20" height="9"/>
    <rect x="207" y="28" width="10" height="46"/>
  </g>
  <g fill="#1A120E">
    <rect x="42" y="90" width="5" height="12"/>
    <path d="M50 90h6l4 12h-5l-.7-2h-3.6L50 102h-5z"/>
    <rect x="63" y="98" width="10" height="4"/>
    <rect x="79" y="90" width="5" height="12"/>
    <rect x="87" y="90" width="5" height="12"/>
    <polygon points="96,102 101,90 106,90 111,102 106,102 105,98 102,98 101,102"/>
    <rect x="114" y="90" width="12" height="4"/>
    <rect x="118" y="90" width="4" height="12"/>
    <rect x="131" y="90" width="5" height="12"/>
    <rect x="139" y="90" width="12" height="4"/>
    <rect x="139" y="90" width="4" height="12"/>
    <rect x="155" y="90" width="11" height="4"/>
    <rect x="158" y="90" width="5" height="12"/>
    <rect x="171" y="90" width="5" height="12"/>
    <rect x="179" y="90" width="11" height="4"/>
    <rect x="186" y="90" width="4" height="12"/>
    <rect x="194" y="90" width="12" height="4"/>
    <rect x="194" y="99" width="12" height="3"/>
  </g>
</svg>
